<svg width="7" height="7" viewBox="0 0 7 7" fill="none" xmlns="http://www.w3.org/2000/svg">
<path d="M3.58067 6.08113C3.82265 6.40377 4.06463 6.64575 4.38727 6.80707C4.70991 6.96839 5.03255 6.96838 5.43585 6.96838C5.83915 6.96838 6.08113 6.7264 6.40377 6.48443C6.72641 6.16179 6.88772 5.83915 6.96838 5.51651C7.04904 5.19387 6.96839 4.79057 6.80707 4.46793C6.64575 4.14529 6.40377 3.82265 6.08113 3.58067L1.08022 0.192963C0.83824 0.0316437 0.596262 -0.0490167 0.434942 0.0316431C0.273622 0.112303 0.112303 0.192963 0.0316431 0.434942C-0.0490167 0.596262 0.0316437 0.83824 0.192963 1.08022L3.58067 6.08113Z" fill="#36B535"/>
</svg>
