<svg width="16" height="22" viewBox="0 0 16 22" fill="none" xmlns="http://www.w3.org/2000/svg">
<path d="M0.485291 21.5145C0.161764 21.191 0 20.7057 0 20.1395V19.7351C0 19.0881 0.161763 18.441 0.404409 17.794C0.647054 17.1469 0.97058 16.5808 1.37499 16.0955C1.7794 15.6102 2.18381 15.044 2.6691 14.5587L3.9632 13.2646C4.36761 12.8602 4.77202 12.5367 5.01467 12.294C5.25731 12.0514 5.41907 11.8896 5.49996 11.647C5.58084 11.4043 5.66172 11.1617 5.66172 10.919C5.66172 10.5955 5.58084 10.3529 5.49996 10.1911C5.41907 10.0293 5.25731 9.78669 5.01467 9.54404C4.69114 9.3014 4.36761 8.97787 3.9632 8.57346C3.5588 8.16905 3.0735 7.76465 2.6691 7.36024C2.26469 6.95583 1.7794 6.38966 1.37499 5.90437C0.97058 5.41908 0.647054 4.77202 0.404409 4.20585C0.161763 3.63968 0 2.91174 0 2.26469V1.86028C0 1.29411 0.161764 0.808818 0.485291 0.485291C0.808818 0.161764 1.29411 0 1.94116 0H13.5072C14.1543 0 14.6396 0.161764 14.9631 0.485291C15.2866 0.808818 15.5293 1.29411 15.5293 1.94116V2.26469C15.5293 2.91174 15.3675 3.55879 15.1249 4.20585C14.8822 4.8529 14.5587 5.41908 14.1543 5.90437C13.7499 6.38966 13.3455 6.95583 12.8602 7.36024C12.3749 7.76465 12.0514 8.24994 11.5661 8.57346C11.0808 8.89699 10.7573 9.3014 10.5146 9.54404C10.272 9.78669 10.1102 9.94845 10.0293 10.1911C9.94845 10.4337 9.86757 10.6764 9.86757 10.919C9.86757 11.2426 9.94845 11.4852 10.0293 11.647C10.1102 11.8087 10.3529 12.0514 10.5146 12.294C10.8381 12.5367 11.1617 12.8602 11.5661 13.2646C11.9705 13.669 12.4558 14.0734 12.8602 14.5587C13.2646 15.044 13.7499 15.5293 14.1543 16.0955C14.5587 16.6616 14.8822 17.2278 15.1249 17.794C15.3675 18.3602 15.5293 19.0072 15.5293 19.7351V20.0587C15.5293 20.7057 15.3675 21.191 14.9631 21.5145C14.5587 21.8381 14.0734 21.9998 13.5072 21.9998H1.94116C1.29411 21.9998 0.808818 21.8381 0.485291 21.5145ZM12.2131 20.1395C12.4558 20.1395 12.6175 20.0587 12.6984 19.9778C12.7793 19.8969 12.8602 19.7351 12.7793 19.4925C12.6984 19.2499 12.6175 19.169 12.4558 19.0072L8.49258 16.0146L8.33082 15.8528C8.24994 15.7719 8.24993 15.7719 8.24993 15.6911V9.86757C8.24993 9.54404 8.33082 9.3014 8.4117 9.13964C8.49258 8.97787 8.65434 8.73523 8.89699 8.57346C9.13963 8.4117 9.38228 8.16906 9.70581 7.92641C10.0293 7.68376 10.3529 7.36024 10.6764 7.11759C10.9999 6.87495 11.2426 6.55142 11.4852 6.30878C11.5661 6.14701 11.647 5.98525 11.647 5.90437C11.647 5.82348 11.5661 5.7426 11.4043 5.7426H4.12497C3.9632 5.7426 3.88232 5.82348 3.88232 5.90437C3.88232 5.98525 3.88232 6.14701 4.04409 6.30878C4.28673 6.55142 4.52938 6.87495 4.8529 7.11759C5.17643 7.36024 5.49996 7.68376 5.82348 7.92641C6.14701 8.16906 6.38966 8.4117 6.6323 8.57346C6.87495 8.81611 7.03671 8.97787 7.11759 9.13964C7.19847 9.3014 7.27935 9.62492 7.27935 9.86757V15.6911C7.27935 15.7719 7.27935 15.8528 7.19847 15.8528C7.11759 15.8528 7.11759 15.9337 7.03671 16.0146L2.99262 19.0072C2.83086 19.169 2.6691 19.3307 2.6691 19.4925C2.6691 19.6543 2.6691 19.816 2.74998 19.9778C2.83086 20.1395 2.99262 20.1395 3.23527 20.1395H12.2131Z" fill="#FF4900"/>
</svg>
