<svg width="26" height="17" viewBox="0 0 26 17" fill="none" xmlns="http://www.w3.org/2000/svg">
<path d="M9.37306 16.0565C8.23199 15.7304 7.17243 15.3229 6.19437 14.8339C5.21631 14.3449 4.40126 13.7743 3.58621 13.2038C2.77117 12.6333 2.20063 11.9812 1.6301 11.3292C1.05956 10.6771 0.652039 10.1066 0.407524 9.61757C0.16301 9.12854 0 8.63952 0 8.3135C0 7.98748 0.16301 7.57995 0.407524 7.00942C0.652039 6.43889 1.14107 5.94985 1.6301 5.29782C2.11913 4.64578 2.85267 4.07524 3.58621 3.4232C4.31976 2.77117 5.21631 2.28214 6.19437 1.7116C7.17243 1.14107 8.23199 0.81505 9.37306 0.489031C10.5141 0.163012 11.7367 0 12.9593 0C14.2634 0 15.4859 0.163012 16.627 0.489031C17.7681 0.81505 18.8276 1.22257 19.8057 1.7116C20.7837 2.20063 21.5988 2.77117 22.4138 3.4232C23.2289 4.07524 23.7994 4.64578 24.37 5.29782C24.9405 5.94985 25.348 6.52039 25.5925 7.00942C25.837 7.49845 26.0001 7.98748 26.0001 8.3135C26.0001 8.63952 25.837 9.04704 25.5925 9.61757C25.348 10.1881 24.9405 10.6771 24.37 11.3292C23.7994 11.9812 23.1474 12.5517 22.3323 13.2038C21.5173 13.8558 20.7022 14.3449 19.7242 14.9154C18.7461 15.4859 17.6866 15.8119 16.5455 16.138C15.4044 16.464 14.1818 16.627 12.8778 16.627C11.6552 16.5455 10.5141 16.3825 9.37306 16.0565ZM14.9969 13.2038C15.6489 12.9593 16.2195 12.5517 16.627 12.0627C17.0345 11.5737 17.5235 11.0032 17.7681 10.4326C18.0126 9.86209 18.1756 9.12854 18.1756 8.395C18.1756 7.66146 18.0126 7.00942 17.7681 6.35738C17.5235 5.70534 17.116 5.13481 16.627 4.72728C16.138 4.31976 15.5674 3.91223 14.9969 3.58622C14.4264 3.2602 13.6928 3.17869 12.9593 3.17869C12.2257 3.17869 11.5737 3.3417 10.9217 3.58622C10.2696 3.83073 9.69908 4.23825 9.21005 4.72728C8.72102 5.21631 8.395 5.78684 8.06898 6.35738C7.74296 6.92791 7.66146 7.66146 7.66146 8.395C7.66146 9.12854 7.82447 9.78058 8.06898 10.4326C8.3135 11.0847 8.72102 11.5737 9.21005 12.0627C9.69908 12.5517 10.2696 12.9593 10.8401 13.2038C11.4107 13.4483 12.1442 13.6113 12.8778 13.6113C13.6113 13.6113 14.3449 13.4483 14.9969 13.2038ZM11.5737 9.78058C11.1662 9.37306 11.0032 8.96553 11.0032 8.395C11.0032 7.82447 11.1662 7.41694 11.5737 7.00942C11.9812 6.6019 12.3887 6.43889 12.9593 6.43889C13.5298 6.43889 13.9373 6.6019 14.3449 7.00942C14.7524 7.41694 14.9154 7.82447 14.9154 8.395C14.9154 8.88403 14.7524 9.37306 14.3449 9.78058C13.9373 10.1881 13.5298 10.3511 12.9593 10.3511C12.3887 10.3511 11.9812 10.1066 11.5737 9.78058Z" fill="#00CFCD"/>
</svg>
