<svg width="22" height="22" viewBox="0 0 22 22" fill="none" xmlns="http://www.w3.org/2000/svg">
<path d="M21.0036 6.72446C20.4224 5.39618 19.6753 4.23392 18.6791 3.2377C17.6829 2.24149 16.5206 1.41131 15.1923 0.830181C13.864 0.249054 12.4527 0 10.9584 0C10.6263 0 10.2942 0.0830177 10.1282 0.332072C9.96217 0.498108 9.79613 0.83018 9.79613 1.16225V4.89807C9.79613 5.23014 9.87915 5.47919 10.0452 5.64523C10.2112 5.81127 10.4603 5.9773 10.7924 5.9773C11.1244 5.9773 11.3735 5.89428 11.5395 5.64523C11.7056 5.39618 11.7886 5.23014 11.7886 4.89807V2.49054C12.6187 2.57356 13.3659 2.7396 14.1131 3.07167C15.1923 3.48676 16.1055 4.1509 16.9357 4.89807C17.7659 5.64523 18.347 6.64144 18.8451 7.63766C19.3432 8.63388 19.5092 9.79613 19.5092 11.0414C19.5092 12.2037 19.2602 13.3659 18.8451 14.3621C18.43 15.3583 17.7659 16.2715 17.0187 17.1017C16.2715 17.9319 15.3583 18.513 14.2791 18.9281C13.2829 19.3432 12.1206 19.5923 10.9584 19.5923C9.79613 19.5923 8.63388 19.3432 7.63766 18.9281C6.64145 18.513 5.72825 17.8489 4.89807 17.1017C4.15091 16.3546 3.48676 15.4414 3.07167 14.3621C2.65658 13.3659 2.40753 12.2037 2.40753 11.0414C2.40753 10.0452 2.57356 9.13199 2.90563 8.21879C3.23771 7.30559 3.6528 6.47541 4.23392 5.81126C4.48298 5.47919 4.56599 5.14712 4.64901 4.81505C4.73203 4.48298 4.566 4.23392 4.31694 3.98487C4.06789 3.73581 3.73581 3.6528 3.40374 3.6528C3.07167 3.6528 2.7396 3.90185 2.40753 4.23392C1.66036 5.14712 1.07924 6.22636 0.664146 7.38861C0.249055 8.55086 0 9.79613 0 11.0414C0 12.5357 0.249054 13.947 0.830181 15.2753C1.41131 16.6036 2.15847 17.7659 3.23771 18.7621C4.23392 19.7583 5.39618 20.5885 6.72446 21.1696C8.05275 21.7507 9.46406 21.9998 10.9584 21.9998C12.4527 21.9998 13.864 21.7507 15.1923 21.1696C16.5206 20.5885 17.6829 19.8413 18.6791 18.7621C19.6753 17.7659 20.5055 16.6036 21.0036 15.2753C21.5017 13.947 21.8338 12.5357 21.8338 11.0414C21.8338 9.54708 21.5847 8.05275 21.0036 6.72446Z" fill="#36B535"/>
</svg>
