<svg width="150" height="275" viewBox="0 0 150 275" fill="none" xmlns="http://www.w3.org/2000/svg">
<g clip-path="url(#clip0_2_5306)">
<path d="M137.417 275H12.5833C5.58333 275 0 269.417 0 262.417V12.5833C0 5.58333 5.58333 0 12.5833 0H137.5C144.417 0 150.083 5.58333 150.083 12.5833V262.5C150 269.417 144.417 275 137.417 275Z" fill="#1A1A1A"/>
<path d="M125.083 137.5H24.9167C18.0833 137.5 12.5 131.917 12.5 125.083V25C12.5 18.0833 18.0833 12.5 24.9167 12.5H125C131.833 12.5 137.417 18.0833 137.417 24.9167V125C137.5 132 131.917 137.5 125.083 137.5Z" fill="white"/>
<path d="M82.5 25.3334H88.5834V22.3334H91.5834V19.3334H85.5834V22.3334H79.5V25.3334H82.5ZM94.5834 25.3334H97.5834V28.3334H100.583V25.3334H106.667V19.3334H97.5834V22.3334H91.5834V25.3334H94.5834ZM76.5 28.3334V22.3334H79.5V19.3334H70.5V25.3334H73.5V28.3334H70.5V31.3334H79.5V28.3334H76.5ZM55.4167 37.3334V40.4167H58.4167V34.3334H61.4167V31.3334H55.4167V34.3334V37.3334ZM94.5834 34.3334H97.5834V37.3334H94.5834V34.3334ZM43.3334 37.3334H46.3334V40.3334H43.3334V37.3334Z" fill="black"/>
<path d="M49.4167 40.4167H52.4167V31.3334H55.4167V28.3334H58.4167V25.3334H55.4167V19.3334H52.4167V28.3334H49.4167V19.3334H43.3333V22.3334H46.4167V28.3334H43.3333V31.3334H46.4167V37.3334H49.4167V40.4167ZM46.4167 40.4167H49.4167V43.4167H46.4167V40.4167ZM25.25 43.4167H28.25V46.4167H25.25V43.4167ZM43.3333 43.4167H46.3333V46.4167H43.3333V43.4167ZM127.75 43.4167V46.4167H124.75V49.4167H127.75V52.4167H130.75V43.4167H127.75ZM85.5833 46.4167H88.5833V49.4167H85.5833V46.4167Z" fill="black"/>
<path d="M121.667 46.4167V43.4167H118.667V49.4167H115.667V46.4167H109.667V52.4167H112.667V55.4167H109.667V52.4167H106.667V46.4167H109.667V43.4167H106.667V31.4167H103.667V28.3334H100.667V37.3334H103.667V43.3334H100.667V37.3334H97.6667V40.3334H94.6667V37.3334H91.6667V40.3334H88.6667V34.3334H94.6667V31.3334H91.6667V25.3334H88.6667V28.3334H82.5V31.3334H79.5V34.3334H76.5V37.3334H79.5V40.3334H76.5V37.3334H73.5V40.3334H70.5V49.3334H73.5V52.3334H76.5V46.3334H73.5V43.3334H76.5V46.3334H85.5V43.3334H88.5V46.3334H91.5V43.3334H97.5V49.3334H100.5V52.3334H103.5V55.3334H100.5V58.3334H103.5V61.3334H106.5V58.3334H109.5V64.3334H112.5V58.3334H115.5V55.3334H118.5V61.3334H121.5V64.3334H124.5V67.5H127.5V64.5H130.5V58.5H127.5V61.5H124.5V58.5H121.667V52.5H124.667V49.5H121.667V46.4167ZM82.5 40.4167V34.4167H85.5V40.4167H82.5Z" fill="black"/>
<path d="M52.4166 49.4167H58.4166V55.4167H61.4166V52.4167H67.5V55.4167H70.5V58.5H73.5V52.4167H70.5V49.4167H64.4166V37.3334H67.5V40.4167H70.5V34.3334H67.5V19.3334H64.4166V22.3334H61.4166V25.3334H64.4166V34.3334H61.4166V46.4167H55.4166V40.4167H52.4166V46.4167H46.4166V49.4167H49.4166V52.4167H52.4166V49.4167ZM91.5833 49.4167H88.5833V52.4167H85.5833V58.5H82.5V61.5H79.5V58.5H76.5V64.5H79.5V67.5H82.5V64.5H88.5833V55.4167H91.5833V52.4167H94.5833V55.4167H91.5833V58.5H97.5833V55.4167H100.583V52.4167H97.5833V49.4167H94.5833H91.5833Z" fill="black"/>
<path d="M79.5 55.4166H82.5V52.4166H85.5833V49.4166H79.5V52.4166H76.5V55.4166H79.5ZM19.25 55.4166H22.25V58.4166H19.25V55.4166ZM40.3333 58.5V55.4166H37.3333V52.4166H40.3333V49.4166H37.3333V46.4166H40.3333V43.4166H31.3333V46.4166H34.3333V52.4166H31.3333V55.4166H34.3333V58.5H37.3333H40.3333ZM58.4167 55.4166H55.4167V52.4166H52.4167V61.5H58.4167V58.5V55.4166ZM67.5 56.5H61.4167V62.5833H70.5V59.5H67.5V56.5ZM124.75 55.4166H127.75V58.4166H124.75V55.4166ZM31.3333 58.5H34.3333V61.5H31.3333V58.5Z" fill="black"/>
<path d="M28.3333 64.5V49.4166H25.25V52.4166H22.25V55.4166H25.25V58.5H22.25V64.5H25.25H28.3333ZM58.4167 61.5H61.4167V64.5H58.4167V61.5ZM70.5 61.5H73.5V64.5H70.5V61.5ZM115.667 61.5H118.667V64.5H115.667V61.5ZM19.25 64.5H22.25V67.5H19.25V64.5ZM49.4167 64.5V61.5H46.4167V55.4166H49.4167V52.4166H43.3333V61.5H34.3333V64.5H31.3333V67.5H34.3333V70.5H40.3333V67.5H37.3333V64.5H46.4167V67.5H43.3333V70.5H49.4167V67.5V64.5ZM55.4167 64.5H52.4167V70.5H49.4167V76.5833H52.4167V73.5H55.4167V67.5H58.4167V64.5H55.4167ZM106.667 67.5H103.583V64.5H100.583V70.5H103.583V76.5833H100.583V73.5H97.5833V76.5833H94.5833V79.5833H91.5833V82.5833H97.5833V85.5833H100.583V82.5833H106.667V79.5833H109.667V76.5833H106.667V70.5H109.667V76.5833H112.667V79.5833H109.667V82.5833H106.667V85.5833H109.667V88.5833H112.667V82.5833H115.667V76.5833H118.667V79.5833H121.667V67.5H118.667V73.5H112.667V70.5H115.667V64.5H112.667V67.5H109.667V64.5H106.667V67.5ZM25.25 67.5H28.25V70.5H25.25V67.5ZM76.5 70.5H73.5V67.5H70.5V73.5H79.5V67.5H76.5V70.5ZM25.25 73.5V70.5H19.25V73.5H22.25H25.25ZM31.3333 70.5H34.3333V73.5H31.3333V70.5ZM40.3333 70.5H43.3333V73.5H40.3333V70.5ZM124.75 70.5V76.5833H127.75V79.5833H124.75V82.5833H127.75V88.5833H130.75V67.5H127.75V70.5H124.75ZM25.25 73.5H28.25V76.5H25.25V73.5ZM37.3333 73.5H40.3333V76.5H37.3333V73.5ZM22.25 76.5833H25.25V79.5833H22.25V76.5833ZM62.5 79.5833V82.5833H59.5V85.5833H62.5V88.5833H68.5833V85.5833H65.5V82.5833H68.5833V85.5833H71.5833V79.5833H68.5833V73.5H65.5V70.5H68.5833V67.5H59.5V70.5H62.5V76.5833H56.5V79.5833H59.5H62.5ZM19.25 82.5833H22.25V85.5833H19.25V82.5833ZM55.4167 82.5833V79.5833H52.4167V85.5833H55.4167V82.5833ZM121.667 82.5833H124.667V85.5833H121.667V82.5833Z" fill="black"/>
<path d="M70.5 88.5834V91.5834H76.5V88.5834H73.5V85.5834H70.5V88.5834ZM103.583 85.5834H106.583V88.5834H103.583V85.5834ZM115.667 85.5834V88.5834H121.667V85.5834H118.667H115.667ZM19.25 88.5834H22.25V91.5834H19.25V88.5834ZM58.4167 88.5834H61.4167V91.5834H58.4167V88.5834Z" fill="black"/>
<path d="M82.5 88.5833V82.5833H85.5833V79.5833H88.5833V76.5833H91.5833V73.5H88.5833V70.5H91.5833V67.5H94.5833V70.5H91.5833V73.5H97.5833V61.5H91.5833V64.5H88.5833V67.5H85.5833V70.5H82.5V73.5H85.5833V76.5833H73.5V79.5833H76.5V82.5833H73.5V85.5833H79.5V94.5H82.5V97.6667H85.5833V91.5833H88.5833V88.5833H85.5833H82.5ZM106.667 88.5833H109.667V91.5833H106.667V88.5833ZM124.75 88.5833H127.75V91.5833H124.75V88.5833ZM34.3333 91.5833H31.3333V82.5833H25.25V85.5833H28.3333V91.5833H22.25V94.5833H25.25V97.6667H31.3333V94.5833H40.3333V91.5833H37.3333H34.3333ZM55.4167 91.5833H58.4167V94.5833H55.4167V91.5833ZM64.4167 91.5833H67.4167V94.5H64.4167V91.5833ZM106.667 94.5833V91.5833H100.583V97.6667H103.583V94.5833H106.667ZM49.4167 94.5833H52.4167V97.5833H49.4167V94.5833Z" fill="black"/>
<path d="M124.75 94.5834V97.5834H118.667V103.583H112.667V100.583H115.667V91.5834H109.667V103.583H106.667V97.5834H103.667V106.583H97.6667V103.583H100.667V97.5834H97.6667V100.583H94.6667V97.5834H97.6667V94.5834H94.6667V88.5834H97.6667V85.5834H88.6667V88.5834H91.6667V91.5834H88.6667V97.5834H85.6667V100.583H91.6667V103.583H94.6667V109.583H91.6667V112.583H94.6667V121.583H97.6667V115.583H100.667V112.583H103.667V121.583H106.667V124.583H103.667V121.583H100.667V124.583H94.6667V130.583H106.667V127.583H109.667V118.583H115.667V121.583H112.667V124.583H118.667V118.583H121.667V115.583H118.667V106.667H121.667V100.667H127.667V103.667H130.667V91.6667H127.667V94.6667L124.75 94.5834ZM115.667 109.667V115.667H106.667V106.667H115.667V109.667ZM19.25 97.6667H22.25V100.667H19.25V97.6667ZM34.3333 100.667H40.3333V97.6667H31.3333V100.667H34.3333ZM73.5 100.667H76.5V94.5834H70.5V97.6667H73.5V100.667ZM22.25 100.667H25.25V103.667H22.25V100.667ZM28.3333 100.667H31.3333V103.667H28.3333V100.667Z" fill="black"/>
<path d="M52.4167 100.667H46.4167V94.6666H49.4167V91.6666H52.4167V85.6666H49.4167V79.6666H46.4167V76.6666H43.3333V79.6666H34.3333V76.6666H31.3333V82.6666H34.3333V88.6666H40.3333V91.6666H43.3333V109.667H46.3333V103.667H49.3333V106.667H52.3333V100.667H52.4167ZM37.3333 85.5833V82.5833H40.3333V85.5833H37.3333ZM43.3333 85.5833V82.5833H46.3333V88.5833H43.3333V85.5833ZM61.4167 100.667H64.4167V94.5833H61.4167V97.6666H58.4167V106.667H61.4167V103.667V100.667ZM19.25 103.667H22.25V106.667H19.25V103.667ZM25.25 103.667H28.25V106.667H25.25V103.667ZM37.3333 103.667H40.3333V106.667H37.3333V103.667Z" fill="black"/>
<path d="M67.5 103.667H70.5V97.6666H67.5V100.667H64.4167V106.667H61.4167V109.667H70.5V106.667H67.5V103.667ZM73.5 103.667H70.5V106.667H76.5V103.667H73.5ZM85.5834 103.667V100.667H82.5V103.667H79.5V106.667H76.5V109.667H79.5V112.667H76.5V115.75H85.5834V112.667H82.5V106.667H91.5834V103.667H88.5834H85.5834ZM124.75 103.667H127.75V106.667H124.75V103.667ZM52.4167 106.667H55.4167V109.667H52.4167V106.667ZM55.4167 109.667H58.4167V112.667H55.4167V109.667ZM109.667 109.667H112.667V112.667H109.667V109.667ZM124.75 109.667H121.667V112.667H124.75V115.75H127.75V112.667H130.75V106.667H127.75V109.667H124.75ZM52.4167 118.75V121.75H55.4167V124.75H58.4167V121.75H61.4167V118.75H55.4167V112.667H52.4167V115.75H46.4167V112.667H43.3334V118.75H46.4167V121.75H49.4167V118.75H52.4167Z" fill="black"/>
<path d="M73.5 118.75H70.5V121.75H67.5V115.75H70.5V112.667H64.4167V124.75H61.4167V127.75H52.4167V130.75H67.5V127.75H70.5V130.75H73.5V124.75H79.5V127.75H82.5V121.75H76.5V115.75H73.5V118.75ZM88.5834 118.75H91.5834V121.75H88.5834V118.75ZM124.75 118.75H121.667V121.75H127.75V124.75H130.75V115.75H127.75V118.75H124.75ZM43.3334 121.75H46.3334V124.75H43.3334V121.75ZM52.4167 121.75H49.4167V127.75H52.4167V124.75V121.75ZM85.5834 124.75V127.75H91.5834V124.75H88.5834V121.75H85.5834V124.75ZM124.75 127.75V130.75H130.75V127.75H127.75V124.75H124.75V127.75ZM46.4167 127.75H49.4167V130.75H46.4167V127.75Z" fill="black"/>
<path d="M76.5 127.75H79.5V130.75H76.5V127.75ZM109.667 127.75H112.667V130.75H109.667V127.75ZM115.667 127.75H118.667V130.75H115.667V127.75ZM123.583 19.3334H116.917C113.667 19.3334 110.917 21.5 110 24.4167C109.917 24.75 109.833 25 109.75 25.3334C109.667 25.6667 109.667 26.0834 109.667 26.4167V33.25C109.667 37.1667 112.917 40.3334 116.833 40.3334H123.5C127.5 40.3334 130.667 37.1667 130.667 33.25V26.4167C130.75 22.5 127.5 19.3334 123.583 19.3334ZM127.583 33.25C127.583 35.4167 125.75 37.1667 123.583 37.1667H116.917C114.667 37.1667 112.917 35.4167 112.917 33.25V26.4167C112.917 25.75 113.083 25.0834 113.417 24.5C113.75 24 114.167 23.5 114.667 23.1667C115.333 22.75 116.083 22.4167 117 22.4167H123.667C125.917 22.4167 127.667 24.1667 127.667 26.3334V33.25H127.583Z" fill="black"/>
<path d="M33.1667 109.667H26.5C23.25 109.667 20.5 111.833 19.5833 114.75C19.5 115.083 19.4167 115.333 19.3333 115.667C19.25 116 19.25 116.417 19.25 116.75V123.583C19.25 127.5 22.5 130.667 26.4167 130.667H33.0833C37.0833 130.667 40.25 127.5 40.25 123.583V116.75C40.3333 112.917 37.0833 109.667 33.1667 109.667ZM37.1667 123.667C37.1667 125.833 35.3333 127.583 33.1667 127.583H26.5C24.25 127.583 22.5 125.833 22.5 123.667V116.833C22.5 116.167 22.6667 115.5 23 114.917C23.3333 114.417 23.75 113.917 24.25 113.583C24.9167 113.167 25.6667 112.833 26.5833 112.833H33.25C35.5 112.833 37.25 114.583 37.25 116.75V123.667H37.1667ZM27.75 34.3334C26.4167 34.3334 25.25 33.25 25.25 31.9167V27.75C25.25 27.3334 25.3333 26.9167 25.5833 26.5834C25.75 26.25 26 26 26.3333 25.75C26.75 25.5 27.25 25.3334 27.75 25.3334H31.8333C33.1667 25.3334 34.3333 26.4167 34.3333 27.75V31.9167C34.3333 33.25 33.25 34.3334 31.8333 34.3334H27.75ZM118.167 34.3334C116.833 34.3334 115.667 33.25 115.667 31.9167V27.75C115.667 27.3334 115.75 26.9167 116 26.5834C116.167 26.25 116.417 26 116.75 25.75C117.167 25.5 117.667 25.3334 118.167 25.3334H122.25C123.583 25.3334 124.75 26.4167 124.75 27.75V31.9167C124.75 33.25 123.667 34.3334 122.25 34.3334H118.167Z" fill="black"/>
<path d="M27.75 124.75C26.4167 124.75 25.25 123.667 25.25 122.333V118.167C25.25 117.75 25.3333 117.333 25.5833 117C25.75 116.667 26 116.417 26.3333 116.167C26.75 115.917 27.25 115.75 27.75 115.75H31.8333C33.1667 115.75 34.3333 116.833 34.3333 118.167V122.333C34.3333 123.667 33.25 124.75 31.8333 124.75H27.75Z" fill="black"/>
<path d="M62.25 55.4166H87.6666C91.4166 55.4166 94.5 58.5 94.5 62.25V87.6666C94.5 91.4166 91.4166 94.5 87.6666 94.5H62.25C58.5 94.5 55.4166 91.4166 55.4166 87.6666V62.3333C55.4166 58.5 58.5 55.4166 62.25 55.4166Z" fill="white"/>
<path d="M75 76.3332C71.4167 76.3332 68.5834 73.4165 68.5834 69.9165C68.5834 66.3332 71.5 63.4999 75 63.4999C78.5834 63.4999 81.4167 66.4165 81.4167 69.9165C81.4167 73.4999 78.5 76.3332 75 76.3332Z" fill="#0EC43E"/>
<path d="M67.9167 82.5C64.3333 82.5 61.5 79.5833 61.5 76.0833C61.5 72.5 64.4167 69.6666 67.9167 69.6666C71.5 69.6666 74.3333 72.5833 74.3333 76.0833C74.3333 79.5833 71.5 82.5 67.9167 82.5Z" fill="#2CF226"/>
<path d="M82 82.5C78.4167 82.5 75.5834 79.5833 75.5834 76.0833C75.5834 72.5 78.5 69.6666 82 69.6666C85.5834 69.6666 88.4167 72.5833 88.4167 76.0833C88.4167 79.5833 85.5 82.5 82 82.5Z" fill="#2CF226"/>
<path d="M75.5834 76.3333C75.5834 76.25 75.5834 76.1666 75.5834 76.0833C75.5834 72.75 78.1667 70 81.4167 69.6666C81.4167 69.75 81.4167 69.8333 81.4167 69.9166C81.4167 73.25 78.8334 76 75.5834 76.3333Z" fill="#E0FF23"/>
<path d="M74.3333 76.3333C71.0833 76 68.5 73.25 68.5 69.9166C68.5 69.8333 68.5 69.75 68.5 69.6666C71.75 70 74.3333 72.75 74.3333 76.0833C74.3333 76.1666 74.3333 76.25 74.3333 76.3333Z" fill="#E0FF23"/>
<path d="M82 68.9999C81.5 65.5833 78.5833 62.8333 75 62.8333C71.4167 62.8333 68.5 65.4999 68.0833 68.9999H68C64.0833 68.9999 61 72.1666 61 75.9999C61 79.9166 64.1667 82.9999 68 82.9999C70.75 82.9999 73.1667 81.4166 74.3333 78.9999V86.3332C74.3333 86.7499 74.6667 87.0833 75.0833 87.0833C75.5 87.0833 75.8333 86.7499 75.8333 86.3332V78.9999C77 81.3333 79.3333 82.9999 82.1667 82.9999C86.0833 82.9999 89.1667 79.8332 89.1667 75.9999C89 72.1666 85.8333 68.9999 82 68.9999ZM75 64.3332C77.8333 64.3332 80.1667 66.4999 80.5 69.1666C77.5 69.8333 75.25 72.3333 75 75.4166C74.75 72.3333 72.5 69.8333 69.5 69.1666C69.75 66.4166 72.1667 64.3332 75 64.3332ZM80.5 70.6666C80.1667 72.9166 78.5833 74.7499 76.4167 75.3333C76.75 73.0833 78.3333 71.2499 80.5 70.6666ZM73.5 75.3333C71.3333 74.7499 69.75 72.9166 69.4167 70.6666C71.5833 71.2499 73.1667 73.0833 73.5 75.3333ZM67.9167 81.6666C64.8333 81.6666 62.3333 79.1666 62.3333 76.0833C62.3333 72.9999 64.8333 70.4999 67.9167 70.4999C68.1667 73.5832 70.4167 76.1666 73.4167 76.8332C73.0833 79.4999 70.75 81.6666 67.9167 81.6666ZM82 81.6666C79.1667 81.6666 76.8333 79.4999 76.5 76.8332C79.5 76.1666 81.75 73.6666 82 70.4999C85.0833 70.4999 87.5833 72.9999 87.5833 76.0833C87.5833 79.1666 85.0833 81.6666 82 81.6666Z" fill="black"/>
<path d="M33.1667 19.3334H26.5C23.25 19.3334 20.5 21.5 19.5833 24.4167C19.5 24.75 19.4167 25 19.3333 25.3334C19.25 25.6667 19.25 26.0834 19.25 26.4167V33.25C19.25 37.1667 22.5 40.3334 26.4167 40.3334H33.0833C37.0833 40.3334 40.25 37.1667 40.25 33.25V26.4167C40.3333 22.5 37.0833 19.3334 33.1667 19.3334ZM37.1667 33.25C37.1667 35.4167 35.3333 37.1667 33.1667 37.1667H26.5C24.25 37.1667 22.5 35.4167 22.5 33.25V26.4167C22.5 25.75 22.6667 25.0834 23 24.5C23.3333 24 23.75 23.5 24.25 23.1667C24.9167 22.75 25.6667 22.4167 26.5833 22.4167H33.25C35.5 22.4167 37.25 24.1667 37.25 26.3334V33.25H37.1667Z" fill="black"/>
<path d="M35.3333 158.917C32.4167 158.917 30.25 161.167 30.25 165.25C30.25 169.333 32.3333 171.667 35.4167 171.667C38.1667 171.667 39.9167 170 39.9167 167.417H35.75V164.833H43.1667V167C43.1667 171.667 39.9167 174.583 35.4167 174.583C30.4167 174.583 27 171 27 165.25C27 159.417 30.5833 155.917 35.3333 155.917C39.3333 155.917 42.4167 158.417 43 162H39.6667C39 160.083 37.5 158.917 35.3333 158.917ZM45.5833 167.667C45.5833 163.5 48.1667 160.583 52 160.583C55.3333 160.583 58.25 162.667 58.25 167.5V168.5H48.75C48.75 170.833 50.1667 172.167 52.25 172.167C53.6667 172.167 54.6667 171.583 55.1667 170.417L58.1667 170.75C57.5833 173.083 55.4167 174.667 52.25 174.667C48.0833 174.667 45.5833 171.917 45.5833 167.667ZM55.1667 166.25C55.1667 164.417 53.9167 163.083 52.0833 163.083C50.1667 163.083 48.9167 164.583 48.75 166.25H55.1667ZM67.75 163.25H65.0833V170.333C65.0833 171.667 65.75 171.917 66.5 171.917C66.9167 171.917 67.25 171.833 67.4167 171.833L67.9167 174.333C67.5833 174.417 66.9167 174.667 66 174.667C63.5833 174.75 61.75 173.5 61.75 170.917V163.333H59.8333V160.833H61.75V157.5H65V160.75H67.6667V163.25H67.75ZM75.6667 174.333L82.0833 156.167H86.1667L92.5833 174.333H89.0833L87.5833 169.833H80.75L79.25 174.333H75.6667ZM86.5833 167.25L84.0833 159.917H83.9167L81.4167 167.25H86.5833ZM94.75 160.75H97.9167V163H98.0833C98.5833 162 99.5833 160.583 102 160.583C105.167 160.583 107.667 163.083 107.667 167.583C107.667 172.083 105.25 174.583 102.083 174.583C99.75 174.583 98.6667 173.167 98.1667 172.167H98V179.417H94.75V160.75ZM101.167 172C103.25 172 104.417 170.167 104.417 167.583C104.417 165.083 103.333 163.25 101.167 163.25C99.0833 163.25 98 165 98 167.583C98 170.167 99.0833 172 101.167 172ZM110.417 160.75H113.583V163H113.75C114.25 162 115.25 160.583 117.667 160.583C120.833 160.583 123.333 163.083 123.333 167.583C123.333 172.083 120.917 174.583 117.75 174.583C115.417 174.583 114.333 173.167 113.833 172.167H113.667V179.417H110.417V160.75ZM116.75 172C118.833 172 120 170.167 120 167.583C120 165.083 118.917 163.25 116.75 163.25C114.667 163.25 113.583 165 113.583 167.583C113.583 170.167 114.667 172 116.75 172ZM42.4167 193.25H39.5833V204.417H36.3333V193.25H34.3333V190.75H36.3333V189.5C36.3333 186.75 38.25 185.417 40.5833 185.417C41.6667 185.417 42.5833 185.667 43 185.75L42.3333 188.25C42.0833 188.167 41.6667 188.083 41.1667 188.083C40 188.083 39.5 188.667 39.5 189.75V190.833H42.3333V193.25H42.4167ZM43.8333 197.583C43.8333 193.333 46.3333 190.5 50.3333 190.5C54.3333 190.5 56.8333 193.333 56.8333 197.583C56.8333 201.833 54.3333 204.583 50.3333 204.583C46.3333 204.667 43.8333 201.833 43.8333 197.583ZM53.5833 197.583C53.5833 195.083 52.5 193.083 50.3333 193.083C48.0833 193.083 47 195.083 47 197.583C47 200.083 48.0833 202.083 50.3333 202.083C52.5 202.083 53.5833 200.083 53.5833 197.583ZM59.5833 190.75H62.6667V193H62.8333C63.3333 191.417 64.6667 190.5 66.1667 190.5C66.5 190.5 67 190.5 67.3333 190.583V193.5C67.0833 193.417 66.4167 193.333 65.8333 193.333C64.0833 193.333 62.75 194.583 62.75 196.25V204.25H59.5V190.75H59.5833ZM75.5 187.083C75.5 186.083 76.3333 185.333 77.3333 185.333C78.3333 185.333 79.1667 186.083 79.1667 187.083C79.1667 188.083 78.3333 188.833 77.3333 188.833C76.3333 188.833 75.5 188 75.5 187.083ZM75.75 190.75H79V204.417H75.75V190.75ZM90.25 204.583C85.5 204.583 81.9167 201.083 81.9167 195.25C81.9167 189.333 85.5 185.917 90.25 185.917C95 185.917 98.5833 189.417 98.5833 195.25C98.5833 201.083 95 204.583 90.25 204.583ZM90.25 188.917C87.3333 188.917 85.25 191.167 85.25 195.333C85.25 199.5 87.3333 201.75 90.25 201.75C93.25 201.75 95.25 199.5 95.25 195.333C95.25 191.167 93.25 188.917 90.25 188.917ZM108.167 188.75C106.083 188.75 104.917 189.75 104.833 191.083C104.833 192.583 106.417 193.25 107.917 193.583L109.583 194C112.333 194.667 114.917 196.083 114.917 199.25C114.917 202.417 112.417 204.667 108 204.667C103.75 204.667 101.083 202.667 100.917 199H104.167C104.333 200.917 105.917 201.833 107.917 201.833C110.083 201.833 111.5 200.833 111.583 199.25C111.583 197.833 110.25 197.25 108.333 196.75L106.25 196.25C103.25 195.5 101.417 194 101.417 191.333C101.417 188.083 104.25 186 108.083 186C111.917 186 114.583 188.167 114.667 191.25H111.5C111.417 189.667 110.167 188.75 108.167 188.75Z" fill="white"/>
<path d="M27.25 223.5C25.8333 223.5 24.8333 224.25 24.8333 225.333C24.8333 226.5 26.1667 226.917 26.9167 227.167L28 227.5C29.1667 227.833 31.0833 228.5 31.0833 230.5C31.0833 232.25 29.6667 233.667 27.1667 233.667C24.8333 233.667 23.3333 232.417 23.25 230.667H24.5833C24.6667 231.917 25.8333 232.5 27.1667 232.5C28.6667 232.5 29.8333 231.75 29.8333 230.5C29.8333 229.417 28.8333 229 27.6667 228.667L26.3333 228.25C24.6667 227.75 23.5833 226.917 23.5833 225.417C23.5833 223.583 25.25 222.333 27.3333 222.333C29.4167 222.333 31 223.583 31 225.25H29.75C29.5833 224.083 28.5833 223.5 27.25 223.5ZM32.75 229.333C32.75 226.833 34.25 225.083 36.4167 225.083C38.1667 225.083 39.4167 226.083 39.6667 227.667H38.4167C38.25 226.917 37.5833 226.25 36.4167 226.25C34.9167 226.25 34 227.5 34 229.333C34 231.25 35 232.5 36.4167 232.5C37.4167 232.5 38.1667 232 38.4167 231.083H39.6667C39.4167 232.5 38.25 233.667 36.4167 233.667C34.1667 233.5 32.75 231.75 32.75 229.333ZM41.1667 231C41.1667 229.167 42.8333 228.75 44.3333 228.583C45.8333 228.417 46.4167 228.417 46.4167 227.833V227.75C46.4167 226.667 45.8333 226.083 44.6667 226.083C43.5 226.083 42.8333 226.75 42.5 227.333L41.3333 226.917C42 225.417 43.4167 225 44.5833 225C45.6667 225 47.5833 225.333 47.5833 227.917V233.333H46.3333V232.25H46.25C46 232.75 45.25 233.583 43.8333 233.583C42.3333 233.583 41.1667 232.667 41.1667 231ZM46.4167 230.417V229.25C46.1667 229.5 44.75 229.667 44.25 229.75C43.25 229.917 42.4167 230.167 42.4167 231.167C42.4167 232 43.1667 232.5 44.1667 232.5C45.5833 232.417 46.4167 231.417 46.4167 230.417ZM51.25 233.333H50V225.167H51.25V226.417H51.3333C51.75 225.583 52.5 225 53.75 225C55.4167 225 56.5 226 56.5 228.083V233.25H55.25V228.167C55.25 226.917 54.5 226.083 53.3333 226.083C52.1667 226.083 51.25 226.917 51.25 228.333V233.333ZM62.3333 225.167H63.6667L65.4167 231.417H65.5L67.25 225.167H68.5833L70.3333 231.417H70.4167L72.1667 225.167H73.5L71 233.333H69.75L68 227.083H67.8333L66.0833 233.333H64.8333L62.3333 225.167ZM74.9167 222.917C74.9167 222.417 75.3333 222.083 75.8333 222.083C76.3333 222.083 76.75 222.5 76.75 222.917C76.75 223.333 76.3333 223.75 75.8333 223.75C75.3333 223.833 74.9167 223.417 74.9167 222.917ZM75.1667 225.167H76.4167V233.333H75.1667V225.167ZM82.25 226.25H80.5V231C80.5 232.083 81 232.25 81.5833 232.25C81.8333 232.25 82 232.167 82.1667 232.167L82.4167 233.333C82.25 233.417 81.9167 233.5 81.5 233.5C80.4167 233.5 79.25 232.833 79.25 231.417V226.333H78V225.25H79.25V223.25H80.5V225.25H82.25V226.25ZM85.5833 233.333H84.3333V222.417H85.5833V226.417H85.6667C86.0833 225.583 86.75 225 88.0833 225C89.75 225 90.9167 226 90.9167 228.083V233.25H89.6667V228.167C89.6667 226.833 88.9167 226.083 87.75 226.083C86.5 226.083 85.5833 226.917 85.5833 228.333V233.333ZM97.3333 236.25L97.6667 235.167C98.5833 235.417 99.1667 235.25 99.5833 234L99.8333 233.333L96.8333 225.083H98.1667L100.417 231.583H100.5L102.75 225.083H104.167L100.667 234.417C100.167 235.667 99.4167 236.333 98.25 236.333C97.8333 236.417 97.4167 236.333 97.3333 236.25ZM105.083 229.333C105.083 226.75 106.583 225.083 108.75 225.083C111 225.083 112.5 226.75 112.5 229.333C112.5 231.833 111 233.583 108.75 233.583C106.583 233.5 105.083 231.833 105.083 229.333ZM111.25 229.333C111.25 227.667 110.5 226.25 108.833 226.25C107.167 226.25 106.417 227.75 106.417 229.333C106.417 231 107.167 232.417 108.833 232.417C110.5 232.417 111.25 230.917 111.25 229.333ZM119.583 225.167H120.833V233.333H119.583V231.917H119.5C119.083 232.75 118.333 233.417 117.083 233.417C115.583 233.417 114.417 232.417 114.417 230.333V225.167H115.667V230.25C115.667 231.417 116.417 232.25 117.417 232.25C118.333 232.25 119.5 231.583 119.5 230L119.583 225.167ZM123.167 225.167H124.417V226.417H124.5C124.833 225.583 125.667 225.083 126.667 225.083H127.333V226.333C127.25 226.333 126.917 226.25 126.583 226.25C125.417 226.25 124.5 227.083 124.5 228.167V233.333H123.25V225.167H123.167ZM20.75 243.5H22V244.833H22.1667C22.4167 244.417 22.9167 243.417 24.5 243.417C26.5833 243.417 28 245.083 28 247.667C28 250.25 26.5833 251.917 24.5 251.917C22.9167 251.917 22.4167 250.917 22.0833 250.5H22V254.833H20.75C20.75 254.833 20.75 243.5 20.75 243.5ZM24.3333 250.75C25.9167 250.75 26.75 249.333 26.75 247.583C26.75 245.833 26 244.5 24.3333 244.5C22.8333 244.5 22 245.75 22 247.583C22 249.417 22.8333 250.75 24.3333 250.75ZM31.1667 251.667H29.9167V240.75H31.1667V244.75H31.25C31.6667 243.917 32.3333 243.333 33.6667 243.333C35.3333 243.333 36.5 244.333 36.5 246.417V251.583H35.25V246.5C35.25 245.167 34.5 244.417 33.3333 244.417C32.0833 244.417 31.1667 245.25 31.1667 246.667V251.667ZM38.3333 247.667C38.3333 245.083 39.8333 243.417 42.0833 243.417C44.3333 243.417 45.75 245.083 45.75 247.667C45.75 250.167 44.25 251.917 42.0833 251.917C39.9167 251.917 38.3333 250.167 38.3333 247.667ZM44.5 247.667C44.5 246 43.75 244.583 42.0833 244.583C40.4167 244.583 39.6667 246.083 39.6667 247.667C39.6667 249.333 40.4167 250.75 42.0833 250.75C43.75 250.75 44.5 249.25 44.5 247.667ZM49 251.667H47.75V243.5H49V244.75H49.0833C49.5 243.917 50.25 243.333 51.5 243.333C53.1667 243.333 54.25 244.333 54.25 246.417V251.583H53V246.5C53 245.25 52.25 244.417 51.0833 244.417C49.9167 244.417 49 245.25 49 246.667V251.667ZM56.0833 247.667C56.0833 245.167 57.5833 243.417 59.75 243.417C61.4167 243.417 63.25 244.5 63.25 247.5V248H57.3333C57.4167 249.75 58.4167 250.667 59.9167 250.667C60.9167 250.667 61.6667 250.25 62 249.417L63.25 249.75C62.8333 251 61.6667 251.833 60 251.833C57.5833 251.833 56.0833 250.167 56.0833 247.667ZM62 246.917C62 245.5 61.1667 244.5 59.75 244.5C58.3333 244.5 57.4167 245.667 57.3333 246.917H62ZM66.3333 241.75C66.3333 242.583 65.8333 243.75 65 244.417L64.3333 243.833C64.75 243.167 65.1667 242.5 65.1667 241.75V240.75H66.3333V241.75ZM71.5 245.667C71.25 245.083 70.8333 244.5 69.75 244.5C68.75 244.5 68 245 68 245.75C68 246.417 68.4167 246.667 69.4167 246.917L70.6667 247.25C72.1667 247.583 72.8333 248.333 72.8333 249.5C72.8333 250.917 71.5 251.917 69.6667 251.917C68 251.917 66.8333 251.167 66.5833 249.75L67.75 249.417C68 250.333 68.5833 250.75 69.6667 250.75C70.8333 250.75 71.5833 250.167 71.5833 249.5C71.5833 248.917 71.1667 248.5 70.3333 248.333L69 248C67.5 247.667 66.8333 246.917 66.8333 245.75C66.8333 244.333 68.0833 243.417 69.8333 243.417C71.4167 243.417 72.3333 244.167 72.75 245.333L71.5 245.667ZM78.5 247.667C78.5 245.167 80 243.417 82.1667 243.417C83.9167 243.417 85.1667 244.417 85.4167 246H84.1667C84 245.25 83.3333 244.583 82.1667 244.583C80.6667 244.583 79.75 245.833 79.75 247.667C79.75 249.583 80.75 250.833 82.1667 250.833C83.1667 250.833 83.9167 250.333 84.1667 249.417H85.4167C85.1667 250.833 84 252 82.1667 252C79.9167 251.833 78.5 250.083 78.5 247.667ZM86.9167 249.333C86.9167 247.5 88.5833 247.083 90.0833 246.917C91.5833 246.75 92.1667 246.75 92.1667 246.167V246.083C92.1667 245 91.5833 244.417 90.4167 244.417C89.25 244.417 88.5833 245.083 88.25 245.667L87.0833 245.25C87.75 243.75 89.1667 243.333 90.3333 243.333C91.4167 243.333 93.3333 243.667 93.3333 246.25V251.667H92.0833V250.583H92C91.75 251.083 91 251.917 89.5833 251.917C88.1667 251.917 86.9167 251 86.9167 249.333ZM92.1667 248.75V247.583C91.9167 247.833 90.5 248 90 248.083C89 248.25 88.1667 248.5 88.1667 249.5C88.1667 250.333 88.9167 250.833 89.9167 250.833C91.3333 250.75 92.1667 249.75 92.1667 248.75ZM95.75 243.5H97V244.75H97.0833C97.4167 243.917 98.25 243.333 99.25 243.333C100.333 243.333 101 243.833 101.417 244.75H101.5C101.917 243.917 102.75 243.333 103.917 243.333C105.417 243.333 106.417 244.25 106.417 246.167V251.667H105.167V246.167C105.167 244.917 104.417 244.5 103.5 244.5C102.333 244.5 101.667 245.25 101.667 246.333V251.667H100.417V246.083C100.417 245.167 99.75 244.5 98.8333 244.5C97.8333 244.5 97 245.333 97 246.583V251.667H95.75V243.5ZM108.417 247.667C108.417 245.167 109.917 243.417 112.083 243.417C113.75 243.417 115.583 244.5 115.583 247.5V248H109.667C109.75 249.75 110.75 250.667 112.25 250.667C113.25 250.667 114 250.25 114.333 249.417L115.583 249.75C115.167 251 114 251.833 112.333 251.833C109.833 251.833 108.417 250.167 108.417 247.667ZM114.333 246.917C114.333 245.5 113.5 244.5 112.083 244.5C110.667 244.5 109.75 245.667 109.667 246.917H114.333ZM117.5 243.5H118.75V244.75H118.833C119.167 243.917 120 243.417 121 243.417H121.667V244.667C121.583 244.667 121.25 244.583 120.917 244.583C119.75 244.583 118.833 245.417 118.833 246.5V251.667H117.5V243.5ZM122.667 249.333C122.667 247.5 124.333 247.083 125.833 246.917C127.333 246.75 127.917 246.75 127.917 246.167V246.083C127.917 245 127.333 244.417 126.167 244.417C125 244.417 124.333 245.083 124 245.667L122.833 245.25C123.5 243.75 124.917 243.333 126.083 243.333C127.167 243.333 129.083 243.667 129.083 246.25V251.667H127.833V250.583H127.75C127.5 251.083 126.75 251.917 125.333 251.917C123.917 251.917 122.667 251 122.667 249.333ZM128 248.75V247.583C127.75 247.833 126.333 248 125.833 248.083C124.833 248.25 124 248.5 124 249.5C124 250.333 124.75 250.833 125.75 250.833C127.167 250.75 128 249.75 128 248.75Z" fill="white"/>
</g>
<defs>
<clipPath id="clip0_2_5306">
<rect width="150" height="275" fill="white"/>
</clipPath>
</defs>
</svg>
